<svg width="683" height="384" viewBox="0 0 683 384" fill="none" xmlns="http://www.w3.org/2000/svg">
<path d="M638.463 314.027C638.463 280.604 611.356 253.547 577.953 253.547C544.515 253.547 517.444 280.64 517.444 314.027" fill="#FF7F41"/>
<path d="M537.258 314.027C537.258 298.062 524.309 285.12 508.337 285.12C492.365 285.12 479.416 298.062 479.416 314.027" fill="#FF7F41"/>
<path d="M488.594 314.027C488.594 288.284 467.713 267.413 441.958 267.413C416.203 267.413 395.322 288.284 395.322 314.027" fill="#FF7F41"/>
<path d="M305.927 314.027C305.927 280.604 278.821 253.547 245.418 253.547C212.015 253.547 184.908 280.64 184.908 314.027" fill="#9063CD"/>
<path d="M239.263 314.027C239.263 292.658 221.939 275.342 200.56 275.342C179.181 275.342 161.857 292.693 161.857 314.027" fill="#9063CD"/>
<path d="M181.351 314.027C181.351 297.102 167.62 283.413 150.722 283.413C133.825 283.413 120.094 297.138 120.094 314.027" fill="#9063CD"/>
<path d="M330.188 314.027C330.188 303.36 321.508 294.684 310.836 294.684C300.164 294.684 291.484 303.36 291.484 314.027" fill="#9063CD"/>
<path d="M651.767 317.369H31.3042C30.3081 317.369 29.5255 316.587 29.5255 315.591C29.5255 314.596 30.3081 313.813 31.3042 313.813H651.767C652.763 313.813 653.546 314.596 653.546 315.591C653.546 316.587 652.763 317.369 651.767 317.369Z" fill="#00C389"/>
<path d="M174.343 179.449H84.2011C84.0944 178.667 84.0588 177.884 84.0588 177.067C84.0588 166.009 93.0232 157.049 104.086 157.049C104.869 157.049 105.616 157.084 106.363 157.191C107.786 147.271 116.288 139.662 126.604 139.662C136.066 139.662 143.999 146.062 146.347 154.773C147.699 154.311 149.157 154.062 150.687 154.062C158.015 154.062 163.956 160 163.956 167.324C163.956 167.929 163.92 168.533 163.849 169.138C163.884 169.138 163.92 169.138 163.956 169.138C169.718 169.067 174.343 173.724 174.343 179.449Z" fill="#59CBE8"/>
<path d="M532.704 144.071H339.401C339.401 132.978 348.401 123.982 359.5 123.982C360.283 123.982 361.03 124.018 361.777 124.124C365.369 110.471 377.82 100.409 392.583 100.409C393.081 100.409 393.543 100.409 394.041 100.444C401.191 85.3334 416.594 74.88 434.452 74.88C454.515 74.88 471.519 88.1423 477.14 106.347C488.381 107.804 497.95 114.702 503.072 124.302C504.424 124.089 505.776 123.982 507.163 123.982C519.542 123.982 529.93 132.551 532.704 144.071Z" fill="#F5B6CD"/>
<path d="M234.248 119.218C248.766 119.218 260.536 107.454 260.536 92.9422C260.536 78.4306 248.766 66.6667 234.248 66.6667C219.729 66.6667 207.959 78.4306 207.959 92.9422C207.959 107.454 219.729 119.218 234.248 119.218Z" fill="#FF7F41"/>
<path d="M36.4622 249.316C35.2528 249.316 34.0077 248.924 32.9761 248.142C30.486 246.222 30.0235 242.631 31.9445 240.178C36.4267 234.382 42.6875 230.151 50.5847 227.627C57.1657 225.529 64.7071 224.711 72.3909 225.244C80.3948 225.813 88.1497 227.556 95.6556 229.262C101.098 230.507 106.221 231.644 111.486 232.391C121.375 233.813 135.142 233.849 144.462 226.062C146.881 224.036 150.473 224.356 152.466 226.773C154.493 229.191 154.173 232.782 151.754 234.773C139.197 245.262 122.051 245.369 109.849 243.662C104.157 242.844 98.537 241.6 93.1299 240.356C85.7307 238.684 78.7229 237.084 71.5727 236.587C58.1973 235.662 46.7428 239.609 40.9088 247.147C39.8417 248.569 38.1342 249.316 36.4622 249.316Z" fill="#FDDA24"/>
<path d="M120.77 235.093C111.592 235.093 104.869 233.031 104.549 232.96C102.379 232.285 101.169 230.009 101.845 227.84C102.521 225.671 104.798 224.462 106.968 225.138C107.039 225.173 113.62 227.129 122.157 226.916C133.256 226.631 142.363 222.933 149.264 216C150.865 214.4 153.426 214.365 155.062 215.965C156.663 217.565 156.699 220.125 155.098 221.76C146.738 230.222 135.319 234.844 122.122 235.129C121.659 235.093 121.233 235.093 120.77 235.093Z" fill="#F5B6CD"/>
<path d="M33.9722 262.258C33.4741 262.258 32.9761 262.151 32.4781 261.973C30.3793 261.156 29.3477 258.773 30.1659 256.676C38.2409 236.124 56.2764 233.102 57.0234 232.96C59.2645 232.604 61.3633 234.133 61.6835 236.373C62.0392 238.613 60.5096 240.676 58.304 241.031C57.6993 241.138 44.0749 243.627 37.7785 259.662C37.1381 261.262 35.6085 262.258 33.9722 262.258Z" fill="#00C389"/>
<path d="M222.26 251.698L216.568 309.013C216.283 311.822 213.793 313.849 210.983 313.564C208.351 313.316 206.394 311.076 206.394 308.48L206.43 250.88C206.43 246.507 209.987 242.951 214.362 242.951C218.738 242.951 222.295 246.507 222.295 250.88C222.295 251.164 222.295 251.449 222.26 251.698Z" fill="#2C2A29"/>
<path d="M232.007 250.098L239.335 307.876C239.69 310.72 237.698 313.28 234.852 313.636C232.184 313.956 229.765 312.213 229.161 309.653L216.39 252.8C215.43 248.533 218.133 244.267 222.402 243.307C226.671 242.347 230.939 245.049 231.9 249.316C231.935 249.564 231.971 249.849 232.007 250.098Z" fill="#2C2A29"/>
<path d="M244.173 257.564C242.927 257.564 241.896 256.569 241.86 255.289C241.469 235.769 227.453 232.32 226.849 232.178C225.603 231.893 224.821 230.649 225.105 229.404C225.39 228.16 226.6 227.378 227.845 227.662C228.022 227.698 232.576 228.729 237.094 232.676C241.22 236.267 246.2 243.093 246.449 255.182C246.485 256.462 245.453 257.529 244.173 257.529C244.208 257.564 244.208 257.564 244.173 257.564Z" fill="#9063CD"/>
<path d="M247.267 262.684C247.196 262.684 247.125 262.684 247.09 262.684C246.236 262.578 245.631 261.796 245.738 260.942C246.449 255.253 246.093 250.062 244.671 245.476C244.422 244.658 244.884 243.804 245.702 243.52C246.52 243.271 247.374 243.733 247.659 244.551C249.224 249.564 249.615 255.182 248.833 261.298C248.726 262.116 248.05 262.684 247.267 262.684Z" fill="#00C389"/>
<path d="M239.263 234.916C238.872 234.916 238.445 234.773 238.161 234.453C233.643 229.796 228.769 228.089 228.734 228.089C227.916 227.804 227.489 226.916 227.773 226.133C228.058 225.316 228.912 224.889 229.73 225.173C229.943 225.244 235.315 227.093 240.402 232.32C241.007 232.924 240.971 233.92 240.366 234.524C240.046 234.773 239.655 234.916 239.263 234.916Z" fill="#00C389"/>
<path d="M218.738 257.351H220.445C227.382 257.351 232.967 251.733 232.967 244.836V243.698H206.181V244.836C206.181 251.733 211.801 257.351 218.738 257.351Z" fill="#2C2A29"/>
<path d="M209.062 214.507L203.513 249.564L236.453 254.187C236.453 254.187 239.797 214.933 209.062 214.507Z" fill="#F5B6CD"/>
<path d="M211.908 221.44C211.588 221.44 211.267 221.369 210.947 221.227C210.769 221.156 206.572 219.164 203.015 214.293C199.777 209.884 196.398 202.133 198.817 190.293C199.066 189.049 200.275 188.231 201.556 188.48C202.801 188.729 203.619 189.938 203.37 191.218C199.493 210.347 212.406 216.782 212.939 217.031C214.078 217.564 214.576 218.951 214.042 220.089C213.58 220.942 212.762 221.44 211.908 221.44Z" fill="#9063CD"/>
<path d="M196.896 201.849C196.078 201.849 195.402 201.244 195.366 200.427C194.94 195.2 195.793 189.618 197.892 183.822C198.177 183.004 199.066 182.613 199.884 182.898C200.702 183.182 201.129 184.071 200.809 184.889C198.888 190.258 198.106 195.413 198.461 200.213C198.532 201.067 197.892 201.813 197.038 201.884C197.003 201.849 196.932 201.849 196.896 201.849Z" fill="#59CBE8"/>
<path d="M209.382 223.538C209.098 223.538 208.813 223.467 208.564 223.324C208.351 223.218 203.513 220.231 199.706 214.009C199.244 213.262 199.493 212.338 200.204 211.876C200.951 211.413 201.876 211.662 202.339 212.373C205.718 217.92 210.094 220.622 210.129 220.658C210.876 221.12 211.09 222.044 210.627 222.791C210.414 223.253 209.916 223.538 209.382 223.538Z" fill="#59CBE8"/>
<path d="M436.8 230.898C436.551 230.898 436.302 230.862 436.053 230.791C428.76 228.942 422.179 224.64 417.519 218.738C412.859 212.8 410.262 205.404 410.191 197.867C410.191 196.16 411.543 194.773 413.215 194.773C414.923 194.773 416.31 196.124 416.31 197.796C416.381 203.982 418.515 210.062 422.322 214.933C426.128 219.804 431.535 223.324 437.547 224.818C439.183 225.244 440.179 226.916 439.752 228.551C439.432 229.973 438.187 230.898 436.8 230.898Z" fill="#F5B6CD"/>
<path d="M444.412 313.849C442.42 313.849 440.464 312.924 439.254 311.147C429.009 296.462 433.385 262.222 433.883 258.382C434.345 254.933 437.547 252.551 440.962 253.013C444.412 253.476 446.796 256.64 446.333 260.089C444.59 272.782 443.914 295.893 449.535 303.929C451.527 306.773 450.816 310.684 447.97 312.676C446.938 313.493 445.658 313.849 444.412 313.849Z" fill="#2C2A29"/>
<path d="M426.092 313.849C423.104 313.849 420.436 311.716 419.903 308.658C415.136 281.564 423.104 258.169 423.46 257.173C424.598 253.902 428.191 252.16 431.464 253.298C434.737 254.436 436.48 258.027 435.341 261.298C435.199 261.653 428.12 282.773 432.282 306.453C432.887 309.867 430.61 313.138 427.195 313.742C426.804 313.849 426.448 313.849 426.092 313.849Z" fill="#2C2A29"/>
<path d="M449.277 214.941C452.329 212.021 452.633 207.389 449.956 204.595C447.28 201.8 442.637 201.901 439.585 204.821C436.534 207.74 436.23 212.372 438.906 215.167C441.583 217.961 446.226 217.86 449.277 214.941Z" fill="#B28038"/>
<path d="M512.564 214.945C515.615 212.026 515.919 207.393 513.243 204.599C510.567 201.804 505.924 201.906 502.872 204.825C499.821 207.744 499.517 212.377 502.193 215.171C504.869 217.966 509.513 217.864 512.564 214.945Z" fill="#E4AC7B"/>
<path d="M426.626 220.693C426.377 220.693 426.128 220.622 425.879 220.48C420.899 217.671 417.342 209.849 417.199 209.529C416.843 208.747 417.199 207.858 417.982 207.502C418.764 207.147 419.654 207.502 420.009 208.284C420.045 208.356 423.318 215.502 427.373 217.813C428.12 218.24 428.369 219.164 427.942 219.911C427.693 220.409 427.16 220.693 426.626 220.693Z" fill="#9063CD"/>
<path d="M453.234 222.578V264.747H418.764C418.8 264.747 415.136 220.8 453.234 222.578Z" fill="#E6DCCB"/>
<path d="M467.997 258.347C466.539 258.347 465.223 257.28 464.974 255.787C463.302 245.973 456.258 237.156 447.08 233.351C445.515 232.711 444.768 230.898 445.409 229.333C446.049 227.769 447.863 227.022 449.428 227.662C460.527 232.284 468.993 242.88 471.021 254.72C471.306 256.391 470.167 257.991 468.495 258.276C468.317 258.347 468.14 258.347 467.997 258.347Z" fill="#59CBE8"/>
<path d="M415.136 217.458C414.745 217.458 414.353 217.316 414.069 217.031C412.432 215.431 411.009 212.516 409.8 208.391C408.911 205.404 408.484 202.916 408.484 202.809C408.342 201.991 408.911 201.173 409.729 201.031C410.583 200.889 411.365 201.458 411.508 202.276C411.97 204.907 413.677 212.302 416.239 214.827C416.843 215.431 416.843 216.391 416.239 216.996C415.954 217.316 415.563 217.458 415.136 217.458Z" fill="#FDDA24"/>
<path d="M464.156 254.258C463.373 254.258 462.697 253.653 462.626 252.871C462.27 249.316 458.571 244.373 457.183 242.773C456.614 242.133 456.685 241.173 457.325 240.604C457.966 240.036 458.926 240.107 459.495 240.747C459.744 240.996 465.152 247.324 465.685 252.551C465.756 253.404 465.152 254.151 464.298 254.222C464.262 254.258 464.227 254.258 464.156 254.258Z" fill="#9063CD"/>
<path d="M464.191 240.64C463.693 240.64 463.195 240.391 462.875 239.929C459.389 234.382 450.602 230.009 450.531 229.973C449.784 229.582 449.464 228.693 449.82 227.911C450.211 227.164 451.1 226.844 451.883 227.2C452.274 227.378 461.523 232 465.472 238.293C465.934 239.004 465.721 239.964 464.974 240.391C464.76 240.533 464.476 240.64 464.191 240.64Z" fill="#FDDA24"/>
<path d="M227.654 210.27C230.33 207.475 230.026 202.843 226.974 199.924C223.923 197.004 219.28 196.903 216.603 199.697C213.927 202.492 214.231 207.124 217.283 210.044C220.334 212.963 224.977 213.064 227.654 210.27Z" fill="#E4AC7B"/>
<path d="M234.248 119.218C248.766 119.218 260.536 107.454 260.536 92.9422C260.536 78.4306 248.766 66.6667 234.248 66.6667C219.729 66.6667 207.959 78.4306 207.959 92.9422C207.959 107.454 219.729 119.218 234.248 119.218Z" fill="#FDDA24"/>
<path d="M234.248 119.396C219.663 119.396 207.781 107.52 207.781 92.9422C207.781 78.3644 219.663 66.4889 234.248 66.4889C248.833 66.4889 260.714 78.3644 260.714 92.9422C260.714 107.52 248.833 119.396 234.248 119.396ZM234.248 66.8444C219.841 66.8444 208.137 78.5422 208.137 92.9422C208.137 107.342 219.841 119.04 234.248 119.04C248.655 119.04 260.358 107.342 260.358 92.9422C260.358 78.5422 248.655 66.8444 234.248 66.8444Z" fill="#FDDA24"/>
<path d="M234.248 108.089C242.617 108.089 249.402 101.307 249.402 92.9422C249.402 84.577 242.617 77.7956 234.248 77.7956C225.878 77.7956 219.094 84.577 219.094 92.9422C219.094 101.307 225.878 108.089 234.248 108.089Z" fill="#FF7F41"/>
<path d="M368.215 196.587C367.148 196.587 366.081 196.551 365.014 196.516C361.634 196.338 358.219 195.876 354.555 195.129C352.385 194.702 350.962 192.569 351.425 190.4C351.852 188.231 353.986 186.809 356.156 187.271C359.393 187.947 362.452 188.338 365.441 188.48C377.535 189.156 388.67 185.28 395.215 178.169C396.709 176.533 399.271 176.427 400.907 177.956C402.543 179.449 402.65 182.009 401.12 183.644C393.472 191.929 381.591 196.587 368.215 196.587Z" fill="#59CBE8"/>
<path d="M330.544 187.164C330.046 187.164 329.548 187.058 329.05 186.88C328.196 186.524 327.306 186.204 326.453 185.849C316.457 181.867 306.141 177.778 295.647 176.249C278.856 173.831 268.753 179.2 264.236 182.613C262.457 183.964 259.931 183.609 258.615 181.831C257.263 180.053 257.619 177.529 259.398 176.213C268.967 168.996 282.236 166.222 296.82 168.32C308.275 169.991 319.054 174.258 329.476 178.418C330.33 178.773 331.184 179.093 332.038 179.449C334.101 180.267 335.097 182.613 334.279 184.676C333.674 186.204 332.144 187.164 330.544 187.164Z" fill="#59CBE8"/>
<path d="M249.935 186.276C248.939 186.276 247.943 185.92 247.125 185.209C245.418 183.644 245.275 181.013 246.841 179.307C247.445 178.667 261.568 163.307 282.52 162.453C284.832 162.347 286.789 164.16 286.896 166.471C287.002 168.782 285.188 170.738 282.876 170.844C265.41 171.556 253.208 184.818 253.066 184.96C252.212 185.813 251.074 186.276 249.935 186.276Z" fill="#9063CD"/>
<path d="M366.721 191.787C356.156 191.787 348.757 188.516 345.591 186.773C343.634 185.707 342.923 183.253 343.99 181.333C345.057 179.378 347.512 178.667 349.433 179.733C352.812 181.582 362.168 185.6 375.935 182.791C378.105 182.364 380.239 183.751 380.666 185.92C381.093 188.089 379.705 190.222 377.535 190.649C373.694 191.431 370.065 191.787 366.721 191.787Z" fill="#FDDA24"/>
<path d="M330.544 191.253C329.974 191.253 329.441 191.111 328.907 190.827C321.899 187.093 303.33 180.729 303.152 180.693C301.338 180.089 300.342 178.098 300.983 176.249C301.587 174.436 303.579 173.44 305.429 174.08C306.212 174.364 324.71 180.658 332.216 184.676C333.923 185.6 334.563 187.698 333.638 189.404C332.998 190.578 331.789 191.253 330.544 191.253Z" fill="#FF7F41"/>
<path d="M515.558 184.356C513.993 184.356 512.463 183.573 511.61 182.116C510.329 179.947 511.041 177.138 513.21 175.858C522.424 170.382 532.918 166.72 543.59 165.191C546.08 164.836 548.428 166.578 548.783 169.067C549.139 171.556 547.396 173.902 544.906 174.258C535.444 175.609 526.088 178.88 517.942 183.716C517.159 184.142 516.341 184.356 515.558 184.356Z" fill="#F5B6CD"/>
<path d="M523.455 174.222C522.175 174.222 520.965 173.476 520.432 172.196C519.756 170.524 520.539 168.604 522.21 167.929C528.471 165.333 534.981 163.484 541.527 162.418C548.179 161.351 554.937 161.067 561.59 161.564C563.404 161.707 564.756 163.271 564.613 165.084C564.471 166.898 562.906 168.249 561.092 168.107C554.902 167.644 548.677 167.929 542.523 168.889C536.475 169.849 530.463 171.591 524.665 173.973C524.309 174.151 523.882 174.222 523.455 174.222Z" fill="#FDDA24"/>
<path d="M616.336 193.422C615.554 193.422 614.771 193.245 614.06 192.818C610.289 190.685 606.66 188.196 603.139 185.778C602.178 185.138 601.253 184.498 600.293 183.858C598.479 182.613 596.06 181.013 593.57 179.556C591.008 178.062 588.732 176.889 586.597 175.929C584.285 174.898 583.254 172.196 584.285 169.884C585.317 167.573 588.02 166.542 590.333 167.573C592.751 168.676 595.348 169.991 598.194 171.662C600.898 173.262 603.459 174.969 605.415 176.249C606.376 176.889 607.372 177.565 608.332 178.205C611.854 180.622 615.198 182.862 618.649 184.853C620.854 186.098 621.601 188.907 620.356 191.111C619.502 192.605 617.937 193.422 616.336 193.422Z" fill="#F5B6CD"/>
<path d="M572.333 174.791C572.048 174.791 571.763 174.756 571.443 174.684C565.289 173.262 558.922 172.658 552.554 172.907C550.384 172.978 548.57 171.271 548.499 169.138C548.428 166.969 550.135 165.156 552.27 165.084C559.313 164.836 566.356 165.511 573.186 167.076C575.285 167.573 576.637 169.671 576.139 171.769C575.748 173.582 574.147 174.791 572.333 174.791Z" fill="#00C389"/>
<path d="M597.198 186.133C596.344 186.133 595.491 185.884 594.708 185.422C593.285 184.498 592.076 183.751 590.937 183.111C589.657 182.4 588.412 181.689 587.131 181.049L587.095 181.013C584.534 179.733 581.866 178.596 579.127 177.6C576.744 176.747 575.499 174.116 576.352 171.769C577.206 169.387 579.839 168.142 582.186 168.996C585.246 170.098 588.269 171.378 591.151 172.836C592.645 173.582 594.103 174.364 595.419 175.147L595.455 175.182C596.7 175.929 598.016 176.711 599.582 177.742C601.716 179.093 602.321 181.938 600.969 184.071C600.186 185.387 598.728 186.133 597.198 186.133Z" fill="#FF7F41"/>
<path d="M633.34 202.311C633.269 202.311 633.162 202.311 633.091 202.311C627.826 201.92 622.455 200.391 617.083 197.831C612.139 195.449 607.621 192.498 603.779 189.902C602.285 188.907 601.894 186.844 602.89 185.351C603.886 183.858 605.949 183.467 607.443 184.462C611.072 186.916 615.34 189.724 619.894 191.929C624.518 194.133 629.107 195.449 633.554 195.769C635.368 195.911 636.72 197.476 636.577 199.289C636.471 201.031 635.048 202.311 633.34 202.311Z" fill="#59CBE8"/>
<path d="M635.652 199.396C632.771 199.396 629.747 198.969 626.475 198.116C624.02 197.476 622.562 194.987 623.202 192.533C623.842 190.08 626.332 188.622 628.787 189.262C631.775 190.044 634.372 190.329 636.755 190.222H636.826C639.245 190.116 641.664 189.511 643.799 188.444C646.075 187.307 648.814 188.231 649.953 190.507C651.091 192.782 650.166 195.52 647.89 196.658C644.581 198.293 640.882 199.253 637.182 199.396C636.684 199.36 636.15 199.396 635.652 199.396Z" fill="#9063CD"/>
<path d="M482.298 249.564C482.12 249.564 481.977 249.529 481.8 249.493C481.017 249.209 480.59 248.355 480.875 247.573C483.72 239.431 490.871 231.431 491.191 231.111C491.76 230.471 492.72 230.436 493.325 231.004C493.965 231.573 494.001 232.533 493.432 233.138C493.361 233.209 486.353 241.031 483.72 248.569C483.543 249.173 482.938 249.564 482.298 249.564Z" fill="#FF7F41"/>
<path d="M483.151 259.129C483.045 259.129 482.938 259.129 482.796 259.093C481.693 258.916 480.946 257.849 481.159 256.747C483.4 243.698 491.475 231.716 502.752 224.711C503.712 224.107 504.958 224.427 505.562 225.351C506.167 226.311 505.847 227.556 504.922 228.16C494.641 234.56 487.242 245.476 485.179 257.422C484.966 258.418 484.112 259.129 483.151 259.129Z" fill="#FDDA24"/>
<path d="M519.115 222.827L505.669 253.013L493.894 254.364C493.859 254.364 478.171 209.778 519.115 222.827Z" fill="#59CBE8"/>
<path d="M508.871 313.956C507.305 313.956 505.882 312.853 505.598 311.253C505.527 310.933 499.444 279.253 497.06 261.902C496.811 260.089 498.092 258.382 499.906 258.133C501.72 257.884 503.428 259.164 503.677 260.978C506.025 278.151 512.108 309.653 512.143 309.973C512.499 311.787 511.289 313.529 509.475 313.885C509.297 313.92 509.084 313.956 508.871 313.956Z" fill="#9063CD"/>
<path d="M511.325 270.009C511.325 270.009 513.282 286.578 520.539 296.889L511.325 270.009Z" fill="white"/>
<path d="M520.539 299.342C519.756 299.342 518.973 298.987 518.511 298.276C510.969 287.609 508.942 270.969 508.835 270.258C508.657 268.907 509.653 267.662 511.005 267.484C512.357 267.307 513.602 268.302 513.78 269.653C513.815 269.796 515.772 285.724 522.566 295.396C523.349 296.533 523.1 298.062 521.962 298.88C521.535 299.2 521.037 299.342 520.539 299.342Z" fill="#00C389"/>
<path d="M526.693 315.804C525.839 315.804 525.021 315.484 524.345 314.844C510.045 300.907 504.815 271.147 504.602 269.867C504.282 268.053 505.527 266.311 507.341 265.991C509.155 265.671 510.898 266.916 511.218 268.729C511.254 269.013 516.305 297.6 529.04 310.044C530.357 311.324 530.392 313.458 529.112 314.773C528.436 315.449 527.546 315.804 526.693 315.804Z" fill="#FDDA24"/>
<path d="M514.242 227.342C513.353 227.342 512.535 226.773 512.286 225.849C511.966 224.782 512.606 223.644 513.673 223.36C518.333 222.044 522.46 219.129 525.305 215.182C528.116 211.236 529.503 206.364 529.218 201.529C529.183 200.64 529.041 199.787 528.863 198.969C528.614 197.867 529.325 196.8 530.428 196.551C531.531 196.302 532.598 197.013 532.847 198.116C533.06 199.147 533.203 200.213 533.274 201.28C533.629 207.04 531.958 212.8 528.614 217.529C525.27 222.222 520.361 225.707 514.776 227.271C514.634 227.342 514.42 227.342 514.242 227.342Z" fill="#9063CD"/>
<path d="M516.874 229.049C516.199 229.049 515.594 228.622 515.416 227.947C515.202 227.129 515.665 226.311 516.448 226.062C528.507 222.649 531.21 211.022 531.21 210.88C531.388 210.062 532.206 209.529 533.025 209.707C533.843 209.884 534.376 210.702 534.198 211.52C534.092 212.053 531.068 225.031 517.266 228.942C517.159 229.013 517.017 229.049 516.874 229.049Z" fill="#FDDA24"/>
<path d="M533.558 204.942C533.523 204.942 533.487 204.942 533.487 204.942C532.633 204.907 531.993 204.196 532.064 203.342C532.135 201.884 532.029 199.111 531.424 197.973C531.033 197.227 531.317 196.302 532.029 195.911C532.776 195.52 533.701 195.804 534.092 196.516C535.301 198.756 535.123 203.022 535.088 203.484C535.017 204.302 534.376 204.942 533.558 204.942Z" fill="#FDDA24"/>
<path d="M500.689 248.036H492.329L498.092 274.809H529.965L529.147 270.969C526.23 257.6 514.42 248.036 500.689 248.036Z" fill="#2C2A29"/>
</svg>
